<svg width="40" height="40" viewBox="0 0 105 105" fill="none" xmlns="http://www.w3.org/2000/svg">
<rect x="0.5" y="0.5" width="104" height="104" rx="19.5" fill="#FFC7C7" stroke="#FFC7C7"/>
<path d="M26.472 65C25.944 65 25.5 64.82 25.14 64.46C24.78 64.1 24.6 63.656 24.6 63.128V38.756C24.6 38.204 24.78 37.76 25.14 37.424C25.5 37.064 25.944 36.884 26.472 36.884C27.024 36.884 27.468 37.064 27.804 37.424C28.164 37.76 28.344 38.204 28.344 38.756V49.088H45.048V38.756C45.048 38.204 45.228 37.76 45.588 37.424C45.948 37.064 46.392 36.884 46.92 36.884C47.472 36.884 47.916 37.064 48.252 37.424C48.588 37.76 48.756 38.204 48.756 38.756V63.128C48.756 63.656 48.588 64.1 48.252 64.46C47.916 64.82 47.472 65 46.92 65C46.392 65 45.948 64.82 45.588 64.46C45.228 64.1 45.048 63.656 45.048 63.128V52.4H28.344V63.128C28.344 63.656 28.164 64.1 27.804 64.46C27.468 64.82 27.024 65 26.472 65ZM57.2914 65C56.7634 65 56.3194 64.82 55.9594 64.46C55.5994 64.1 55.4194 63.656 55.4194 63.128V38.756C55.4194 38.204 55.5994 37.76 55.9594 37.424C56.3194 37.064 56.7634 36.884 57.2914 36.884C57.8434 36.884 58.2874 37.064 58.6234 37.424C58.9834 37.76 59.1634 38.204 59.1634 38.756V63.128C59.1634 63.656 58.9834 64.1 58.6234 64.46C58.2874 64.82 57.8434 65 57.2914 65ZM74.129 65C73.601 65 73.157 64.82 72.797 64.46C72.437 64.1 72.257 63.656 72.257 63.128V36.884H76.001V63.128C76.001 63.656 75.821 64.1 75.461 64.46C75.101 64.82 74.657 65 74.129 65ZM64.481 40.34C63.977 40.34 63.557 40.184 63.221 39.872C62.909 39.536 62.753 39.116 62.753 38.612C62.753 38.108 62.909 37.7 63.221 37.388C63.557 37.052 63.977 36.884 64.481 36.884H83.741C84.245 36.884 84.653 37.052 84.965 37.388C85.301 37.7 85.469 38.108 85.469 38.612C85.469 39.116 85.301 39.536 84.965 39.872C84.653 40.184 84.245 40.34 83.741 40.34H64.481Z" fill="white"/>
</svg>
